<svg id="Layer_1" data-name="Layer 1" xmlns="http://www.w3.org/2000/svg" xmlns:xlink="http://www.w3.org/1999/xlink" width="28.02" height="9" viewBox="0 0 28.02 9"><defs><style>.cls-1{fill-rule:evenodd;fill:url(#linear-gradient);}.cls-2{fill:#fffdfd;}.cls-3{fill:none;}</style><linearGradient id="linear-gradient" x1="16" y1="20" x2="16" y2="11" gradientUnits="userSpaceOnUse"><stop offset="0.1" stop-color="#f0f0f0"/><stop offset="0.12" stop-color="#e6e6e6"/><stop offset="0.14" stop-color="#cbcbcb"/><stop offset="0.14" stop-color="#c8c7c7"/><stop offset="0.36" stop-color="#a9a8a8"/><stop offset="0.72" stop-color="#706e6e"/><stop offset="0.81" stop-color="#a19f9f"/><stop offset="0.94" stop-color="#ecebeb"/><stop offset="1" stop-color="#fff"/></linearGradient></defs><title>logo</title><path id="Layer_1-2" data-name="Layer_1" class="cls-1" d="M16,17.49c.45.15.43-1.73,2.09-2.18,1.24-.33,1.63-.51,1.79-.93l.19-.42a18.15,18.15,0,0,1-.35,2.84c-.26.93-.79,2.42-3.72,2.47s-3.48-1.51-3.72-2.47A18.15,18.15,0,0,1,11.93,14l.19.42c.18.42.55.58,1.79.93C15.57,15.76,15.55,17.64,16,17.49Zm-1.38,2.4A6.6,6.6,0,0,0,16,20a8.3,8.3,0,0,0,1.38-.11,4.38,4.38,0,0,0,2.05-.76A4.69,4.69,0,0,0,21,15.29c0-1.56-.77-3.47-2.46-4a6.21,6.21,0,0,0-1.14-.22L17,11c-.35,0-.7,0-1,0a8.79,8.79,0,0,0-1,0l-.4.05a5.76,5.76,0,0,0-1.14.22c-1.67.49-2.46,2.42-2.46,4a4.78,4.78,0,0,0,1.57,3.84A4.61,4.61,0,0,0,14.62,19.89Zm1.24-8.22h.28a6.23,6.23,0,0,1,2.2.42c1.3.51,1.07,1.18,1.07,1.18A10,10,0,0,0,16.57,15,2.69,2.69,0,0,0,16,16a2.69,2.69,0,0,0-.57-1,10,10,0,0,0-2.84-1.75s-.23-.67,1.07-1.18A6.23,6.23,0,0,1,15.86,11.67Z" transform="translate(-1.96 -11)"/><path class="cls-2" d="M2,15.56a1,1,0,0,0,.47.13c.27,0,.42-.14.42-.34s-.1-.3-.38-.41S2,14.65,2,14.37a.58.58,0,0,1,.65-.55.93.93,0,0,1,.45.1L3,14.13A.92.92,0,0,0,2.64,14c-.27,0-.38.16-.38.3s.13.28.4.39.52.3.52.59-.23.59-.71.59A1,1,0,0,1,2,15.78Z" transform="translate(-1.96 -11)"/><path class="cls-2" d="M3.53,14.82c0-.15,0-.28,0-.4h.23v.24h0a.49.49,0,0,1,.46-.27.44.44,0,0,1,.41.29h0a.79.79,0,0,1,.17-.19.51.51,0,0,1,.32-.1c.19,0,.47.13.47.63v.86H5.35v-.83c0-.28-.11-.44-.32-.44a.33.33,0,0,0-.31.24.44.44,0,0,0,0,.13v.9H4.44V15c0-.24-.1-.4-.31-.4a.35.35,0,0,0-.32.26.3.3,0,0,0,0,.13v.88H3.53Z" transform="translate(-1.96 -11)"/><path class="cls-2" d="M6.83,15.88l0-.19h0a.55.55,0,0,1-.45.22.41.41,0,0,1-.44-.42c0-.35.31-.54.87-.54v0a.29.29,0,0,0-.33-.33.77.77,0,0,0-.38.1L6,14.52a.88.88,0,0,1,.48-.13c.44,0,.55.3.55.6v.54a1.83,1.83,0,0,0,0,.35Zm0-.74c-.29,0-.62,0-.62.32a.24.24,0,0,0,.25.26.35.35,0,0,0,.35-.25.19.19,0,0,0,0-.08Z" transform="translate(-1.96 -11)"/><path class="cls-2" d="M7.48,14.88c0-.17,0-.32,0-.46h.23v.29h0a.42.42,0,0,1,.4-.32h.07v.25H8.1a.37.37,0,0,0-.35.34.49.49,0,0,0,0,.12v.78H7.48Z" transform="translate(-1.96 -11)"/><path class="cls-2" d="M8.85,14v.41h.38v.2H8.85v.79c0,.18.05.28.2.28l.15,0v.2a.63.63,0,0,1-.23,0,.37.37,0,0,1-.29-.11.58.58,0,0,1-.1-.38v-.8H8.36v-.2h.23v-.35Z" transform="translate(-1.96 -11)"/><path class="cls-2" d="M23.81,15c0-.28,0-.62,0-.88h0c-.06.24-.15.49-.25.77l-.36,1H23l-.32-1c-.1-.28-.18-.55-.24-.79h0c0,.26,0,.6,0,.9l-.06.87h-.25l.14-2h.34l.34,1a6.38,6.38,0,0,1,.21.68h0c.05-.2.12-.42.21-.68l.36-1H24l.13,2h-.25Z" transform="translate(-1.96 -11)"/><path class="cls-2" d="M25.33,15.88l0-.19h0a.51.51,0,0,1-.44.22.42.42,0,0,1-.45-.42c0-.35.32-.54.88-.54v0a.3.3,0,0,0-.33-.33.77.77,0,0,0-.38.1l-.06-.17a.88.88,0,0,1,.48-.13c.44,0,.55.3.55.6v.54a1.89,1.89,0,0,0,0,.35Zm0-.74c-.29,0-.61,0-.61.32a.24.24,0,0,0,.25.26.35.35,0,0,0,.35-.25.19.19,0,0,0,0-.08Z" transform="translate(-1.96 -11)"/><path class="cls-2" d="M25.81,15.72l.66-.85.19-.23h-.79v-.22H27v.17l-.64.84c-.07.08-.12.16-.19.23H27v.21H25.81Z" transform="translate(-1.96 -11)"/><path class="cls-2" d="M28.49,13.74V15.5c0,.13,0,.28,0,.38h-.23l0-.25h0a.54.54,0,0,1-.5.28.66.66,0,0,1-.62-.74.7.7,0,0,1,.65-.78.49.49,0,0,1,.44.22h0v-.87ZM28.23,15s0-.08,0-.12a.4.4,0,0,0-.39-.3c-.27,0-.43.24-.43.56s.14.54.43.54a.4.4,0,0,0,.39-.32s0-.07,0-.11Z" transform="translate(-1.96 -11)"/><path class="cls-2" d="M29.73,15.88l0-.19h0a.51.51,0,0,1-.44.22.42.42,0,0,1-.45-.42c0-.35.32-.54.88-.54v0a.29.29,0,0,0-.33-.33.77.77,0,0,0-.38.1l-.06-.17a.88.88,0,0,1,.48-.13c.44,0,.55.3.55.6v.54a3.49,3.49,0,0,0,0,.35Zm0-.74c-.29,0-.62,0-.62.32a.24.24,0,0,0,.25.26.35.35,0,0,0,.35-.25.19.19,0,0,0,0-.08Z" transform="translate(-1.96 -11)"/><line class="cls-3" x1="0.04" y1="5" x2="27.04" y2="5"/></svg>